<svg width="48.5" xmlns="http://www.w3.org/2000/svg" height="44.6" viewBox="0 0 48.5 44.6" xmlns:xlink="http://www.w3.org/1999/xlink" enable-background="new 0 0 48.5 44.6">
<defs>
<circle cx="22.5" cy="22.3" id="SVGID_1_" r="22.2"/>
<clipPath id="SVGID_2_">
<use xlink:href="#SVGID_1_"/>
</clipPath>
<clipPath id="SVGID_4_">
<use xlink:href="#SVGID_3_"/>
</clipPath>
<path id="SVGID_3_" d="m41.1,9.8h-2.8l1.6-1.6c-4.1-5.1-10.4-8.3-17.5-8.3-12.3-.1-22.4,10-22.4,22.4 0,4.9 1.5,9.4 4.2,13l2.8,.8-1.2,1.2c4.1,4.6 10.1,7.5 16.7,7.5 12.4-0 22.5-10.1 22.5-22.5 0-4.6-1.5-8.9-3.9-12.5z"/>
</defs>
<g clip-path="url(#SVGID_2_)">
<path fill="#e31837" d="m.3,.1h44.4v44.4h-44.4z" clip-path="url(#SVGID_4_)"/>
</g>
<path fill="#fff" d="m21.8,24.3c10.9,.9 15.1,3.9 14.9,8-.2,2.2-2.3,4.3-5,4.5-3.2,.2-4.7-1.1-5.6-2.5-.8-1.3-1.7-2.6-2.6-4-.2-.4-.6-.1-.9,.1-.7,.6-1.3,1.3-1.9,1.9-.4,.4-.3,.7-.2,1 .6,1.4 1.2,2.8 1.8,4.1 1,.6 5.5,1.4 8.8,1.1 2.3-.2 5.1-1.1 7.5-2.8 2.3-1.8 4-4.2 4.3-8.1 .1-2.4-.3-4.9-2.4-7.2-2.1-2.3-5.7-4.2-13-4.7 .4-1.2 .7-2.3 1.1-3.4 4.4,.2 8.3,.5 11.6,.9 .3-1.3 .4-2.5 .7-3.7l-.9-1.1c-1.7-.2-3.3-.6-5.1-.8-2.3-.3-4.7-.5-7.3-.6-1.7,4.8-3.7,10.9-5.8,17.3m-2.9-18.7c-.8,0-1.9,.2-3.7,.6-3.9,1.1-8.7,3.8-9.2,8.3-.1,.7-.1,1.5-.2,2.2-1.1,.1-2.1,.2-3.1,.3-.1,.9-.1,1.7-.2,2.6 1-.1 2-.1 3.1-.2-.2,4.7 0,9.4 .4,13.8 .1,.7 .1,1.3 .1,1.7-.1,.4-.8,.6-1.8,.6l1.3,1.6c3.8,.7 8.6,1.2 13.7,1.3 0-.5 0-1 0-1.5-3-.2-4.4-.6-4.6-1.2-.2-.5-.2-1.2-.3-1.9-.2-4.6-.3-9.6-.2-14.7 1.7,0 3.4,0 5.1-.1 .9-.4 1.7-.8 2.5-1.2 0-.6 0-1.2 0-1.7-2.6,0-5.1,.1-7.6,.1 .1-2.1 .2-4.1 .3-6 .1-1.3 1-2.2 1.8-2.2 1.4-.1 2.7,.5 4,1.1 .7,.3 1.4,.7 2.1,1 .3,.1 .7,.2 1-.1 .4-.5 .8-1 1.2-1.4 .2-.3 .1-.5 0-.6-.9-.7-1.7-1.3-2.6-2-.5-.4-1.4-.4-2.2-.4-.3-.1-.6-0-.9-0" clip-path="url(#SVGID_2_)"/>
<path d="m47.8,34c.3,.3 .4,.6 .4,1 0,.4-.1,.7-.4,1-.3,.3-.6,.4-1,.4-.4,0-.7-.1-1-.4-.3-.3-.4-.6-.4-1 0-.4 .1-.7 .4-1 .3-.3 .6-.4 1-.4 .4,0 .8,.1 1,.4zm.2-.1c-.3-.3-.7-.5-1.2-.5-.5,0-.9,.2-1.2,.5-.3,.3-.5,.7-.5,1.2 0,.5 .2,.9 .5,1.2 .3,.3 .7,.5 1.2,.5 .5,0 .9-.2 1.2-.5 .3-.3 .5-.7 .5-1.2 0-.5-.2-.9-.5-1.2zm-.9,1.1c-.1,0-.2,0-.3,0h-.3v-.7h.3c.2,0 .3,0 .4,.1 .1,0 .1,.1 .1,.3-0,.1-.1,.2-.2,.3zm-1,1h.3v-.7h.3c.2,0 .3,0 .4,.1 .1,.1 .2,.2 .2,.4v.1 .1c0,0 0,0 0,0h.3c0,0 0,0 0-.1 0-.1 0-.1 0-.1v-.1c0-.1 0-.2-.1-.3-.1-.1-.2-.2-.3-.2 .1,0 .2,0 .3-.1 .1-.1 .2-.2 .2-.4 0-.2-.1-.4-.3-.5-.1,0-.3-.1-.5-.1h-.6v1.9z"/>
</svg>
